<svg version="1.2" xmlns="http://www.w3.org/2000/svg" viewBox="0 0 250 250" width="250" height="250">
	<title>Proyecto nuevo</title>
	<style>
		.s0 { fill: none;stroke: #000000;stroke-width: 9 } 
	</style>
	<g id="Layer 1">
		<path id="path12045" fill-rule="evenodd" class="s0" d="m175 45.1q-0.3-1.2-0.7-2.4c-1.3-4.9-0.1-10.3 8.3-10.3h18.2c10.8 0 9.6 7.4 7.8 14.6-1.3 5.1-2.4 11.6-2.9 17.8 0 0 15 11 23.3 17.9 26.1 22.1 9.1 36.5-15.9 35.3q-3.7-0.2-7.3-0.4c0.2 7.3 2.3 20.9 13.8 36.3 29 34.6-9.4 78.1-63.5 65.8-9 3-23.2 4.4-31 4.4-7.9 0-22.1-1.4-31-4.4-54.2 12.3-92.5-31.2-63.6-65.8 11.5-15.4 13.7-29 13.9-36.3l-7.4 0.4c-25 1.2-42-13.2-15.8-35.3 38.8-32.7 85.8-57 103.9-57.1 9.9 0 28.6 7.4 49.9 19.5zm-49.9 65.3c-28.2 0.4-55 2.4-86.5 4.5-19.6 1.2-30.5-11.9-18.2-25.3 18.1-19.9 80.1-60.8 104.7-60.8 24.5 0 86.5 40.9 104.7 60.8 12.3 13.4 1.3 26.5-18.3 25.3-31.5-2.1-58.2-4.1-86.4-4.5zm35.3 107.7q0.3 0.1 0.6 0.1c49.7 8.1 73.9-33.7 57.9-59-12.3-18.4-15.3-33.9-15.8-41.7-32.8-1.8-55.4-3.4-78-3.7-22.7 0.3-45.3 1.9-78.1 3.6-0.5 7.9-3.4 23.4-15.8 41.8-16.1 25.4 8.4 67.4 58.6 58.9m88.8-170.9c-2.1-8.3-2.1-11.7 5-11.7h15.7c10.4-0.2 6.1 7.9 5.2 15.9-0.6 4.8-0.9 8.7-1.1 11.7-8.4-5.8-16.7-11.2-24.8-15.9zm-89.6 169m72.3 2.1c-5.5-0.1-15.8 4.1-36.2 4.1-20.4 0-30.6-4.4-36-4.3m66.9-0.1"/>
		<path id="Forma 1" fill-rule="evenodd" class="s0" d="m269 99"/>
	</g>
</svg>