<svg xmlns:dc="http://purl.org/dc/elements/1.1/" xmlns:cc="http://creativecommons.org/ns#" xmlns:rdf="http://www.w3.org/1999/02/22-rdf-syntax-ns#" xmlns:svg="http://www.w3.org/2000/svg" xmlns="http://www.w3.org/2000/svg" xmlns:sodipodi="http://sodipodi.sourceforge.net/DTD/sodipodi-0.dtd" xmlns:inkscape="http://www.inkscape.org/namespaces/inkscape" width="251.87778" height="88.961868" viewBox="0 0 66.642661 23.537827" version="1.1" id="svg12520" inkscape:version="0.92.0 r15299" xmlns:xlink="http://www.w3.org/1999/xlink">
 <!-- Define clipping paths and other reusable elements -->
 <defs id="defs12514">
  <!-- Clipping path used to crop parts of the logo -->
  <clipPath id="clipPath11969" clipPathUnits="userSpaceOnUse">
   <path inkscape:connector-curvature="0" id="path11967" d="m 213.685,241.673 h 188.882 v 66.202 H 213.685 Z">
   </path>
  </clipPath>
 </defs>
 
 <!-- Inkscape-specific metadata for editing -->
 <sodipodi:namedview id="base" pagecolor="#ffffff" bordercolor="#666666" borderopacity="1.0" inkscape:pageopacity="0.0" inkscape:pageshadow="2" inkscape:zoom="3.589755" inkscape:cx="124.93889" inkscape:cy="43.480934" inkscape:document-units="mm" inkscape:current-layer="layer1" showgrid="false" fit-margin-top="0" fit-margin-left="0" fit-margin-right="0" fit-margin-bottom="0" units="px" inkscape:window-width="1280" inkscape:window-height="744" inkscape:window-x="-4" inkscape:window-y="-4" inkscape:window-maximized="1">
 </sodipodi:namedview>
 
 <!-- Dublin Core metadata -->
 <metadata id="metadata12517">
  <rdf:RDF>
   <cc:Work rdf:about="">
    <dc:format>image/svg+xml</dc:format>
    <dc:type rdf:resource="http://purl.org/dc/dcmitype/StillImage"></dc:type>
    <dc:title></dc:title>
   </cc:Work>
  </rdf:RDF>
 </metadata>
 
 <!-- Main drawing layer -->
 <g inkscape:label="Layer 1" inkscape:groupmode="layer" id="layer1" transform="translate(20.583533,-136.79985)">
  
  <!-- Main logo group with scaling and positioning transforms -->
  <g id="g11963" transform="matrix(0.35277777,0,0,-0.35277777,-95.984061,245.67561)">
   
   <!-- Clipped content group -->
   <g id="g11965" clip-path="url(#clipPath11969)">
    
    <!-- DAVIVIENDA text logo removed -->
    
    <!-- House mascot starts here - all converted to black outlines -->
    

    






    
    <!-- Complex detailed mascot structure - now outline -->
    <g id="g12043" transform="translate(318.3672,303.9022)">
     <path d="m 0,0 c -0.041,0.164 -0.088,0.329 -0.134,0.493 -0.277,0.993 -0.03,2.1 1.687,2.1 h 3.721 c 2.195,0 1.951,-1.511 1.578,-2.98 -0.266,-1.048 -0.485,-2.374 -0.577,-3.628 0,0 3.051,-2.243 4.738,-3.665 5.337,-4.499 1.859,-7.442 -3.227,-7.186 -0.512,0.026 -1.013,0.05 -1.503,0.076 0.036,-1.501 0.478,-4.258 2.82,-7.398 5.909,-7.062 -1.912,-15.931 -12.961,-13.435 -1.822,-0.609 -4.721,-0.889 -6.321,-0.889 -1.598,0 -4.499,0.28 -6.321,0.889 -11.048,-2.496 -18.87,6.373 -12.961,13.435 2.343,3.141 2.785,5.899 2.82,7.398 l -1.504,-0.076 c -5.085,-0.256 -8.564,2.687 -3.226,7.186 7.919,6.673 17.499,11.633 21.192,11.652 C -8.15,3.962 -4.33,2.458 0,0 m -10.171,-13.331 c -5.753,-0.08 -11.22,-0.486 -17.648,-0.901 -3.988,-0.257 -6.226,2.408 -3.713,5.158 3.701,4.05 16.343,12.393 21.353,12.393 5.01,0 17.651,-8.343 21.353,-12.393 2.514,-2.75 0.275,-5.415 -3.713,-5.158 -6.427,0.415 -11.879,0.821 -17.632,0.901 m 7.194,-21.967 c 10.222,-1.732 15.223,6.843 11.943,12.026 -2.521,3.744 -3.122,6.903 -3.22,8.51 -6.699,0.355 -11.309,0.679 -15.925,0.745 -4.617,-0.066 -9.226,-0.389 -15.927,-0.744 -0.097,-1.606 -0.695,-4.766 -3.219,-8.511 -3.28,-5.184 1.723,-13.761 11.947,-12.026 -4.343,1.639 -4.873,4.445 -2.555,5.339 1.689,0.651 3.958,1.479 3.958,1.479 -1.135,5.534 0.825,12.828 5.796,12.821 4.972,0.007 6.93,-7.287 5.797,-12.821 0,0 2.268,-0.828 3.958,-1.479 2.317,-0.894 1.783,-3.7 -2.553,-5.339 M 0.745,-0.432 C 0.313,1.254 0.308,1.954 1.765,1.956 L 4.959,1.953 C 7.085,1.992 6.213,0.349 6.021,-1.283 5.904,-2.278 5.83,-3.067 5.799,-3.68 4.092,-2.485 2.387,-1.395 0.745,-0.432 m -6.697,-31.78 c 2.77,7.978 0.083,15.306 -4.227,15.292 -4.31,0.014 -6.997,-7.313 -4.226,-15.292 -2.137,-0.413 -3.553,-1.13 -3.553,-1.946 0,-0.26 0.141,-0.509 0.414,-0.742 -3.59,1.579 -3.923,4.152 -1.959,4.847 1.703,0.604 3.78,1.412 3.78,1.412 -1.1,5.371 0.595,12.578 5.544,12.575 4.95,0.003 6.644,-7.204 5.545,-12.575 0,0 2.067,-0.841 3.78,-1.412 1.928,-0.643 1.642,-3.231 -1.932,-4.828 0.25,0.228 0.386,0.471 0.386,0.723 0,0.816 -1.416,1.533 -3.552,1.946 m -0.319,-0.231 c 2.18,-0.35 3.639,-0.985 3.639,-1.715 0,-1.111 -3.378,-2.012 -7.539,-2.012 -4.164,0 -7.555,0.901 -7.555,2.012 0,0.73 1.454,1.367 3.642,1.717 0,0 2.378,0.285 3.905,0.285 1.529,0 3.908,-0.287 3.908,-0.287 m -3.908,0.602 c -2.207,0 -3.999,-0.33 -3.999,-0.33 -2.637,7.689 -0.22,14.933 3.999,14.933 4.223,0 6.640,-7.256 4.001,-14.935 0,0 -1.706,0.332 -4.001,0.332" style="fill:none;stroke:#000000;stroke-width:0.3;fill-rule:evenodd" id="path12045" inkscape:connector-curvature="0">
     </path>

    </g>
    </g>
    </g>
    </g>
    </svg>